<svg xmlns="http://www.w3.org/2000/svg" width="77.619" height="101.57" viewBox="0 0 77.619 101.57">
  <g id="Group_8" data-name="Group 8" transform="translate(-39.632 -13.419)">
    <rect id="Rectangle_30" data-name="Rectangle 30" width="20.692" height="20.692" transform="translate(68.091 16.71)" fill="#d03293"/>
    <path id="Path_1" data-name="Path 1" d="M73.551,38.928l-10.356-2.46-10.356-2.46,7.309-7.739,7.309-7.739,3.048,10.2Z" fill="#d03293"/>
    <path id="Path_2" data-name="Path 2" d="M80.96,36.767l4.359-9.711,4.359-9.711,6.231,8.631,6.231,8.631-10.59,1.08Z" fill="#d03293"/>
    <rect id="Rectangle_31" data-name="Rectangle 31" width="47.492" height="33.531" transform="translate(54.647 37.914)" fill="#8a3393"/>
    <path id="Path_3" data-name="Path 3" d="M60.738,69.574l-9.458-.964-9.458-.964,6.458-16.474L54.737,34.7l3,17.439Z" fill="#8a3393"/>
    <path id="Path_4" data-name="Path 4" d="M114.069,69.928l-9.5.382-9.5.382,4.01-18.557,4.01-18.557,5.489,18.175Z" fill="#8a3393"/>
    <path id="Path_5" data-name="Path 5" d="M43.377,73.785,42.6,69.574l-.778-4.211,4.036,1.432,4.036,1.432-3.258,2.779Z" fill="#8a3393"/>
    <path id="Path_6" data-name="Path 6" d="M58.257,76.564l-.778-4.211L56.7,68.142l4.036,1.432,4.036,1.432-3.258,2.779Z" fill="#8a3393"/>
    <path id="Path_7" data-name="Path 7" d="M76.713,75.957l-.972-5.265-.972-5.265,6.192,1.579,6.192,1.579-5.219,3.686Z" fill="#8a3393"/>
    <path id="Path_8" data-name="Path 8" d="M96.042,75.957l-.972-5.265L94.1,65.428l6.192,1.579,6.192,1.579-5.219,3.686Z" fill="#8a3393"/>
    <path id="Path_9" data-name="Path 9" d="M104.569,66.791l4.727-2.514,4.727-2.514.361,6.38.361,6.38-5.088-3.865Z" fill="#8a3393"/>
    <rect id="Rectangle_32" data-name="Rectangle 32" width="51.73" height="15.215" transform="translate(52.839 89.652)" fill="#8a3393"/>
    <path id="Path_10" data-name="Path 10" d="M56.476,104.15l17.076-.172,17.076-.172-8.5,3.843-8.5,3.843-8.576-3.671Z" fill="#8a3393"/>
    <path id="Path_11" data-name="Path 11" d="M68.091,104.15l17.076-.172,17.076-.172-8.5,3.843-8.5,3.843-8.576-3.671Z" fill="#8a3393"/>
    <path id="Path_12" data-name="Path 12" d="M61.628,106.122,78.7,105.95l17.076-.172-8.5,3.843-8.5,3.843L70.2,109.793Z" fill="#8a3393"/>
    <path id="Path_13" data-name="Path 13" d="M55.656,100.25,50.03,97.469,44.4,94.687l4.968-2.967,4.968-2.967L55,94.5Z" fill="#8a3393"/>
    <path id="Path_14" data-name="Path 14" d="M91.55,95.378l6.1-4.8,6.1-4.8.751,7.231.751,7.231L98.4,97.814Z" fill="#8a3393"/>
    <path id="Path_15" data-name="Path 15" d="M87.4,85.862l1.5,2.892,1.5,2.892L87.152,91.5,83.9,91.357l1.753-2.748Z" fill="#8a3393"/>
    <path id="Path_16" data-name="Path 16" d="M54.9,85.862l1.5,2.892,1.5,2.892L54.647,91.5l-3.256-.144,1.753-2.748Z" fill="#8a3393"/>
    <path id="Path_17" data-name="Path 17" d="M70.545,85.862l1.5,2.892,1.5,2.892L70.3,91.5l-3.256-.144,1.753-2.748Z" fill="#8a3393"/>
    <path id="Path_18" data-name="Path 18" d="M112.77,93.467l-6.361,3.984-6.361,3.984,0-7.065,0-7.065,6.358,3.081Z" fill="#8a3393"/>
    <rect id="Rectangle_33" data-name="Rectangle 33" width="70.001" height="13.52" transform="translate(44.067 73.785)" fill="#17c0de"/>
    <path id="Path_19" data-name="Path 19" d="M106.142,69.933l1.5,2.3,1.5,2.3-3.087.375-3.087.375,1.584-2.676Z" fill="#17c0de"/>
    <path id="Path_20" data-name="Path 20" d="M51.159,70.171,52.5,72.218l1.337,2.047-2.442.134-2.442.134,1.1-2.182Z" fill="#17c0de"/>
    <path id="Path_21" data-name="Path 21" d="M88.606,69.533l1.472,2.254L91.55,74.04l-3.125.434-3.125.434,1.653-2.687Z" fill="#17c0de"/>
    <path id="Path_22" data-name="Path 22" d="M69.243,69.077l1.945,2.977,1.945,2.977-3.964.465-3.964.465,2.019-3.442Z" fill="#17c0de"/>
    <path id="Path_23" data-name="Path 23" d="M47.236,84.629l1.5,2.3,1.5,2.3-3.087.375-3.087.375,1.584-2.676Z" fill="#17c0de"/>
    <path id="Path_24" data-name="Path 24" d="M62.2,84.3l1.5,2.3,1.5,2.3-3.087.375-3.087.375,1.584-2.676Z" fill="#17c0de"/>
    <path id="Path_25" data-name="Path 25" d="M78.394,81.946l2.551,3.905L83.5,89.756l-4.281.011-4.281.011,1.73-3.916Z" fill="#17c0de"/>
    <path id="Path_26" data-name="Path 26" d="M94.959,81.946l2.551,3.905,2.551,3.905-4.281.011-4.281.011,1.73-3.916Z" fill="#17c0de"/>
    <path id="Path_27" data-name="Path 27" d="M108.837,81.872l2.551,3.905,2.551,3.905-4.281.011-4.281.011,1.73-3.916Z" fill="#17c0de"/>
    <g id="Group_7" data-name="Group 7">
      <g id="Group_6" data-name="Group 6">
        <g id="Group_2" data-name="Group 2">
          <path id="Path_28" data-name="Path 28" d="M46.287,93.918a2.218,2.218,0,0,1-1.311-4.008l9.092-6.653a2.218,2.218,0,0,1,2.914.259l4.96,5.2L68.826,83.3a2.217,2.217,0,0,1,2.74,0l7.1,5.577,7.1-5.577a2.217,2.217,0,0,1,2.74,0l6.884,5.409,4.96-5.2a2.217,2.217,0,0,1,2.956-.226l8.649,6.653a2.217,2.217,0,1,1-2.7,3.515l-7.069-5.437L97.2,93.231a2.217,2.217,0,0,1-2.974.212l-7.1-5.576-7.1,5.576a2.217,2.217,0,0,1-2.74,0l-7.1-5.576-7.1,5.576a2.217,2.217,0,0,1-2.974-.212l-5.007-5.246-7.522,5.5A2.2,2.2,0,0,1,46.287,93.918Z"/>
        </g>
        <g id="Group_3" data-name="Group 3">
          <path id="Path_29" data-name="Path 29" d="M41.852,78.394a2.218,2.218,0,0,1-1.2-4.083L51,67.658a2.218,2.218,0,0,1,2.7.234l5.922,5.453L67.8,67.7a2.216,2.216,0,0,1,2.52,0l8.376,5.782L87.07,67.7a2.215,2.215,0,0,1,2.519,0l8.269,5.708,6.907-5.606a2.219,2.219,0,0,1,2.728-.052l8.871,6.653a2.218,2.218,0,1,1-2.661,3.549l-7.487-5.615L99.362,77.9a2.217,2.217,0,0,1-2.657.1l-8.376-5.782L79.954,78a2.216,2.216,0,0,1-2.52,0l-8.376-5.782L60.683,78a2.217,2.217,0,0,1-2.762-.193l-5.966-5.492-8.906,5.726A2.21,2.21,0,0,1,41.852,78.394Z"/>
        </g>
        <g id="Group_4" data-name="Group 4">
          <path id="Path_30" data-name="Path 30" d="M78.663,114.989A38.844,38.844,0,0,1,51.18,103.563,38.376,38.376,0,0,1,39.632,76.176c0-9.571,4.175-27.514,11.911-41.916a2.217,2.217,0,0,1,2.56-1.084,91.6,91.6,0,0,0,24.56,3.082,91.584,91.584,0,0,0,24.56-3.082,2.217,2.217,0,0,1,2.56,1.084c7.529,14.015,11.468,31.7,11.468,41.916a38.66,38.66,0,0,1-11.312,27.374A38.177,38.177,0,0,1,78.663,114.989ZM54.637,37.914C47.765,51.383,44.068,67.483,44.068,76.176c0,18.635,15.842,34.378,34.6,34.378a34.3,34.3,0,0,0,34.153-34.378c0-9.064-3.543-25.271-10.128-38.261a98.345,98.345,0,0,1-24.025,2.778A98.309,98.309,0,0,1,54.637,37.914Z"/>
        </g>
        <g id="Group_5" data-name="Group 5">
          <path id="Path_31" data-name="Path 31" d="M78.663,40.693a96.075,96.075,0,0,1-25.772-3.25,2.219,2.219,0,0,1-1.348-3.183c7.325-13.634,16.7-20.841,27.12-20.841s19.8,7.207,27.12,20.841a2.218,2.218,0,0,1-1.347,3.183A96.078,96.078,0,0,1,78.663,40.693Zm-21.818-6.8a95.243,95.243,0,0,0,21.818,2.366,95.246,95.246,0,0,0,21.819-2.366c-4.652-7.815-11.9-16.038-21.819-16.038S61.5,26.077,56.845,33.892Z"/>
        </g>
      </g>
    </g>
  </g>
</svg>
