<svg xmlns="http://www.w3.org/2000/svg" width="121" height="191.432" viewBox="0 0 121 191.432">
  <g id="Group_12" data-name="Group 12" transform="translate(40.22 62.106)">
    <g id="Group_10" data-name="Group 10" transform="translate(-37.991 -57.32)">
      <rect id="Rectangle_34" data-name="Rectangle 34" width="7.807" height="138.799" transform="translate(8.085 24.189)" fill="#d4de25"/>
      <g id="Group_9" data-name="Group 9">
        <rect id="Rectangle_35" data-name="Rectangle 35" width="38.966" height="55.953" transform="translate(18.279 24.189)" fill="#204099"/>
        <rect id="Rectangle_36" data-name="Rectangle 36" width="40.706" height="18.217" transform="translate(57.534 25.057)" fill="#d32027"/>
        <rect id="Rectangle_37" data-name="Rectangle 37" width="40.706" height="18.217" transform="translate(57.401 61.748)" fill="#d32027"/>
        <rect id="Rectangle_38" data-name="Rectangle 38" width="80.164" height="18.217" transform="translate(17.163 100.965)" fill="#d32027"/>
        <rect id="Rectangle_39" data-name="Rectangle 39" width="15.041" height="18.217" transform="translate(100.313 37.154)" fill="#d32027"/>
        <rect id="Rectangle_40" data-name="Rectangle 40" width="15.041" height="18.217" transform="translate(99.97 75.441)" fill="#d32027"/>
        <rect id="Rectangle_41" data-name="Rectangle 41" width="28.747" height="18.217" transform="translate(88.008 113.727)" fill="#d32027"/>
        <ellipse id="Ellipse_1" data-name="Ellipse 1" cx="7.178" cy="11.167" rx="7.178" ry="11.167" transform="translate(4.949)" fill="#d4de25"/>
        <rect id="Rectangle_42" data-name="Rectangle 42" width="14.356" height="7.807" transform="translate(4.949 165.157)" fill="#231f20"/>
        <rect id="Rectangle_43" data-name="Rectangle 43" width="23.699" height="6.94" transform="translate(0 175.133)" fill="#231f20"/>
      </g>
      <rect id="Rectangle_44" data-name="Rectangle 44" width="79.048" height="20.822" transform="translate(18.279 80.143)" fill="#fff"/>
      <rect id="Rectangle_45" data-name="Rectangle 45" width="41.419" height="20.822" transform="translate(57.401 41.755)" fill="#fff"/>
      <rect id="Rectangle_46" data-name="Rectangle 46" width="17.604" height="20.822" transform="translate(98.107 54.995)" fill="#fff"/>
      <rect id="Rectangle_47" data-name="Rectangle 47" width="17.604" height="20.822" transform="translate(98.107 93.281)" fill="#fff"/>
    </g>
    <g id="Group_11" data-name="Group 11" transform="translate(-40.22 -62.106)">
      <path id="Path_32" data-name="Path 32" d="M-17.715-14.345l3.815-3.127,3.815,3.127-.718-6.6,3.076-4.69-4.266-.957-1.907-6-1.907,6-4.266.957,3.1,4.69Z" transform="translate(44.642 68.584)" fill="#fff"/>
      <path id="Path_33" data-name="Path 33" d="M-4.228-15.078-.413-18.2,3.4-15.078l-.738-6.6,3.1-4.658-4.266-.989-1.907-6-1.907,6-4.266.989,3.076,4.658Z" transform="translate(47.603 68.423)" fill="#fff"/>
      <path id="Path_34" data-name="Path 34" d="M-17.715,3.969-13.9.842l3.815,3.127-.718-6.6,3.076-4.69-4.266-.957-1.907-6-1.907,6-4.266.957,3.1,4.69Z" transform="translate(44.642 72.604)" fill="#fff"/>
      <path id="Path_35" data-name="Path 35" d="M-4.228,3.236-.413.109,3.4,3.236l-.738-6.6,3.1-4.658L1.494-9.016l-1.907-6-1.907,6-4.266.989L-3.51-3.368Z" transform="translate(47.603 72.443)" fill="#fff"/>
      <path id="Path_36" data-name="Path 36" d="M62.323-23.819V-36.582H-17.722a21.862,21.862,0,0,0,2.112-9.572c0-8.806-4.594-15.952-10.254-15.952S-36.119-54.96-36.119-46.154c0,5.2,1.621,9.763,4.1,12.667V103.8h-.616c-1.928,0-3.487,2.424-3.487,5.423v4.148h-.615c-1.928,0-3.487,2.426-3.487,5.424v10.528h28.712V118.8c0-3-1.56-5.424-3.487-5.424h-.616v-4.148c0-3-1.559-5.423-3.487-5.423h-.615V65.516H45.915V78.278H80.78v-102.1ZM-19.711,27.229H58.22V39.992H-19.711ZM21.306,8.085H58.22V20.848H21.306ZM62.323,20.848H76.679V33.61H62.323Zm0-6.38V1.7H76.679V14.467ZM58.22,1.7H21.306V-11.057H58.22Zm4.1,38.287H76.679V52.754H62.323ZM76.679-17.439V-4.677H62.323V-17.439ZM58.22-30.2v12.762H21.306V-30.2ZM17.2,20.848H-19.711V-30.2H17.2ZM-25.864-55.726c3.383,0,6.152,4.307,6.152,9.572s-2.77,9.572-6.152,9.572-6.152-4.307-6.152-9.572S-29.248-55.726-25.864-55.726ZM-15.61,122.945H-36.119v-3.19H-15.61Zm-4.1-9.572h-12.3v-3.19h12.3Zm-4.1-9.571h-4.1v-134h4.1v134Zm4.1-44.668V46.372H58.22V59.134H-19.711ZM51.228,71.9h-1.21v-6.38h5.311Zm5.783,0L61.5,64.91l.821-1.277v-4.5H76.679V71.9Z" transform="translate(40.22 62.106)"/>
    </g>
  </g>
</svg>
