<svg xmlns="http://www.w3.org/2000/svg" width="178.622" height="135.449" viewBox="0 0 178.622 135.449">
  <g id="Group_14" data-name="Group 14" transform="translate(-48 -278.279)">
    <ellipse id="Ellipse_2" data-name="Ellipse 2" cx="38.961" cy="47.131" rx="38.961" ry="47.131" transform="translate(146.544 316.068)" fill="#e88424"/>
    <ellipse id="Ellipse_3" data-name="Ellipse 3" cx="38.961" cy="47.131" rx="38.961" ry="47.131" transform="translate(98.35 316.068)" fill="#e88424"/>
    <ellipse id="Ellipse_4" data-name="Ellipse 4" cx="38.961" cy="47.131" rx="38.961" ry="47.131" transform="translate(133.559 316.071)" fill="#e88424"/>
    <ellipse id="Ellipse_5" data-name="Ellipse 5" cx="38.961" cy="47.131" rx="38.961" ry="47.131" transform="translate(61.423 316.068)" fill="#e88424"/>
    <ellipse id="Ellipse_6" data-name="Ellipse 6" cx="38.961" cy="47.131" rx="38.961" ry="47.131" transform="translate(50.689 316.068)" fill="#e88424"/>
    <path id="Path_46" data-name="Path 46" d="M187.869,312.67a30.589,30.589,0,0,0-7.493.938,30.535,30.535,0,0,0-7.487-.938,31.752,31.752,0,0,0-17.6,5.474,32.811,32.811,0,0,0-11.364-4.817,29.134,29.134,0,0,1,29.081-28.178,3.435,3.435,0,0,0,0-6.87,36.014,36.014,0,0,0-35.934,34.4,31.917,31.917,0,0,0-17.362,5.713,31.823,31.823,0,0,0-17.976-5.727,30.381,30.381,0,0,0-7.491.942,30.406,30.406,0,0,0-7.489-.942c-10.541,0-20.385,5.387-27.721,15.168C51.918,337.323,48,349.882,48,363.2s3.918,25.875,11.032,35.36c7.336,9.78,17.18,15.167,27.721,15.167a30.382,30.382,0,0,0,7.486-.942,30.4,30.4,0,0,0,7.494.942A31.819,31.819,0,0,0,119.707,408a31.049,31.049,0,0,0,35.579.255,31.769,31.769,0,0,0,17.6,5.475,30.42,30.42,0,0,0,7.49-.942,30.418,30.418,0,0,0,7.489.942c10.543,0,20.388-5.387,27.723-15.167,7.115-9.485,11.032-22.043,11.032-35.36s-3.917-25.878-11.03-35.364C208.257,318.056,198.412,312.67,187.869,312.67ZM54.87,363.2c0-21.578,11.491-39.546,26.532-43.043a44.351,44.351,0,0,0-9.968,11.48,63.137,63.137,0,0,0,0,63.119A44.39,44.39,0,0,0,81.4,406.24C66.362,402.745,54.87,384.776,54.87,363.2Zm40.319,42.727C80.5,401.7,69.848,383.729,69.848,363.2s10.659-38.5,25.347-42.732a23.542,23.542,0,0,1,6.536-.929,24.6,24.6,0,0,1,12.412,3.467c-9.594,9.51-15.214,24.174-15.214,40.194s5.619,30.68,15.214,40.187a24.6,24.6,0,0,1-12.409,3.47,23.565,23.565,0,0,1-6.545-.93Zm26.649-4.879c-9.892-7.814-16.037-22.317-16.037-37.847s6.145-30.036,16.036-37.853a24.5,24.5,0,0,1,31.36-.264c10.1,7.756,16.374,22.362,16.374,38.117S163.3,393.56,153.2,401.316a24.494,24.494,0,0,1-31.359-.267Zm39.1,2.61c9.65-9.457,15.5-24.494,15.5-40.457s-5.849-31-15.5-40.461a24.512,24.512,0,0,1,11.949-3.2,23.7,23.7,0,0,1,6.537.925c14.685,4.225,25.346,22.2,25.346,42.735s-10.658,38.5-25.345,42.728a23.594,23.594,0,0,1-6.538.93,24.514,24.514,0,0,1-11.949-3.2Zm32.281,2.582a44.354,44.354,0,0,0,9.966-11.478,63.146,63.146,0,0,0,0-63.127,44.357,44.357,0,0,0-9.962-11.474c15.038,3.5,26.525,21.469,26.525,43.041s-11.488,39.538-26.528,43.036Z"/>
  </g>
</svg>
