<svg xmlns="http://www.w3.org/2000/svg" width="167.595" height="200.301" viewBox="0 0 167.595 200.301">
  <g id="Group_13" data-name="Group 13" transform="translate(79.947 -5)">
    <path id="Path_37" data-name="Path 37" d="M-41.223,23.034l13.981-2.579,5.8-12.979,6.773,12.5L-.53,21.482l-9.795,10.3L-7.39,45.7l-12.827-6.131-12.323,7.091,1.868-14.094Z" fill="#e7e514"/>
    <path id="Path_38" data-name="Path 38" d="M12.917,97.8l-33.542-.137-33.542-.137L-37.3,75.321l16.862-22.208,16.68,22.345Z" fill="#196b36"/>
    <path id="Path_39" data-name="Path 39" d="M20.908,131.82l-42.481-.173-42.481-.173,21.379-33.843L-21.3,63.786-.194,97.8Z" fill="#196b36"/>
    <path id="Path_40" data-name="Path 40" d="M34.36,172.39l-54.38-.222-54.38-.222,27.346-37.959,27.346-37.959L7.325,134.209Z" fill="#196b36"/>
    <rect id="Rectangle_48" data-name="Rectangle 48" width="27.413" height="15.335" transform="translate(-34.806 172.833)" fill="#533d15"/>
    <rect id="Rectangle_49" data-name="Rectangle 49" width="67.084" height="13.414" transform="translate(-54.167 188.168)" fill="#e71e25"/>
    <rect id="Rectangle_50" data-name="Rectangle 50" width="49.887" height="27.24" transform="translate(29.065 174.342)" fill="#e62125"/>
    <rect id="Rectangle_51" data-name="Rectangle 51" width="56.953" height="17.073" transform="translate(27.881 155.759)" fill="#0e66b2"/>
    <path id="Path_41" data-name="Path 41" d="M-31.921,120.728a4.494,4.494,0,0,0,4.613-4.367,4.492,4.492,0,0,0-4.613-4.353,4.5,4.5,0,0,0-4.612,4.353A4.5,4.5,0,0,0-31.921,120.728Z" fill="#fdb81a"/>
    <path id="Path_42" data-name="Path 42" d="M-74.823,176.743c.49,0,1.077-.016,1.772-.034.928-.024,2.056-.053,3.4-.053l32.083.009v7.673H-47.32a10.5,10.5,0,0,0-10.487,10.487A10.493,10.493,0,0,0-47.32,205.3H4.929a10.482,10.482,0,0,0,0-20.963H-3.679v-7.664l28.921.006v25.354a3.264,3.264,0,0,0,3.265,3.264H78.815a3.264,3.264,0,0,0,3.265-3.264V176.682h2.3a3.264,3.264,0,0,0,3.265-3.264V157.06a3.264,3.264,0,0,0-3.265-3.265H67.146c3.472-2.639,6.123-5.913,6.764-9.933a10.727,10.727,0,0,0-7.792-11.944c-4.126-1.177-8.308.329-11.148,4a16.28,16.28,0,0,0-1.313,2.032,15.935,15.935,0,0,0-1.315-2.039,10.308,10.308,0,0,0-11.141-4,10.723,10.723,0,0,0-7.794,11.935c.639,4.026,3.292,7.3,6.764,9.942h-15.6c-1.716-2.484-3.436-4.979-5.127-7.418q-4.083-5.9-8.137-11.8l6.107,0,2.757.011c2.1,0,4.48,0,5.56-2.254,1.064-2.226-.363-3.99-1.872-5.862-.561-.694-1.264-1.567-2.076-2.664L6.2,102.777H8.808c.579.02,1.12.035,1.814.049.577.015,1.059.049,1.531.024,1.589,0,4.229-.011,5.342-2.33S17.127,96.338,15.249,94c-.648-.806-1.44-1.8-2.335-3.005L11.6,89.223C2.739,77.248-5.638,65.937-15.5,54.273a3.261,3.261,0,0,0-2.446-1.15l-.076-6.172,6.332,2.951c2.353,1.118,3.532,1.679,4.836,1.679a3.726,3.726,0,0,0,2.967-1.414c1.295-1.655.857-3.425.06-6.632l-1.718-8.29L.828,29.89c.8-.667,1.482-1.219,2.045-1.673C4.9,26.59,6.645,25.186,5.931,22.762S2.94,20.1.307,19.82c-.677-.071-1.482-.154-2.424-.269l-9.659-1.182-4.415-7.892C-16.6,9.738-16.932,9.113-17.2,8.6-18.127,6.829-19.084,5-21.388,5s-3.238,1.772-4.233,3.648c-.249.469-.547,1.026-.908,1.671l-4.5,8.052-10.536,1.3c-.776.093-1.446.164-2.009.222-2.331.245-4.536.476-5.235,2.86s1.062,3.786,2.762,5.148c.49.391,1.086.868,1.776,1.448l7.008,5.9-1.513,7.48c-.176.866-.338,1.6-.479,2.225-.538,2.42-.892,4.015.316,5.522A3.59,3.59,0,0,0-36.123,51.8c1.155,0,2.083-.461,3.768-1.3.636-.316,1.411-.7,2.345-1.133l5.453-2.526.076,6.282a3.261,3.261,0,0,0-2.393,1.164C-36.61,65.993-45.059,77.4-54,89.479L-55.3,91.224c-.9,1.217-1.683,2.2-2.312,2.982-1.8,2.257-3.223,4.035-2.128,6.314s3.559,2.283,5.537,2.283l1.52-.011c.706-.006,1.511-.015,2.424-.015H-49l-16.4,22.131c-.6.819-1.133,1.484-1.56,2.025-1.358,1.716-2.64,3.336-1.656,5.466.959,2.078,3.176,2.158,4.019,2.187l10.006.005L-75.982,165.82c-.617.9-1.16,1.655-1.616,2.3-1.772,2.482-3.054,4.273-1.921,6.477C-78.415,176.743-75.989,176.743-74.823,176.743Zm83.689,18.08a3.944,3.944,0,0,1-3.939,3.943H-47.322a3.955,3.955,0,0,1-3.957-3.943,3.961,3.961,0,0,1,3.957-3.955H4.927A3.951,3.951,0,0,1,8.866,194.823Zm-19.079-10.487H-31.036v-7.671l20.823,0Zm41.982-7.654H50.392v22.087H31.769Zm43.779,22.084H56.924V176.68H75.548Zm-15.4-58.858a4.2,4.2,0,0,1,3.167-1.861,3.677,3.677,0,0,1,1.017.151,4.254,4.254,0,0,1,3.133,4.63c-.507,3.187-4.353,6.569-10.538,9.4,0-.034,0-.067,0-.1C57.156,146.609,58.262,142.354,60.145,139.908ZM42.993,138.2a3.659,3.659,0,0,1,1.012-.149,4.2,4.2,0,0,1,3.163,1.854c1.885,2.455,2.995,6.71,3.231,12.223,0,.035,0,.069,0,.1-6.183-2.826-10.031-6.211-10.538-9.41A4.251,4.251,0,0,1,42.993,138.2Zm38.123,22.129v9.826H35.693l-.632-1.044c-1.974-2.922-3.988-5.853-6-8.782ZM-25.1,40.237a3.248,3.248,0,0,0-1.373.3L-32.211,43.2l1.732-8.555a3.268,3.268,0,0,0-1.1-3.147l-6.714-5.651,9.7-1.195A3.265,3.265,0,0,0-26.142,23l4.734-8.466L-16.676,23a3.259,3.259,0,0,0,2.454,1.647l9.715,1.189-6.728,5.655a3.264,3.264,0,0,0-1.1,3.151l1.74,8.557-5.588-2.6a3.285,3.285,0,0,0-1.347-.3L-21.3,40.27c-.024,0-.046-.006-.071,0s-.029,0-.044,0l-3.664-.033ZM-50.9,96.249c.272-.356.559-.734.857-1.137l1.293-1.745C-40.167,81.772-32.041,70.8-22.828,59.65h3.316c9.31,11.1,17.362,21.973,25.87,33.461l1.311,1.77c.363.489.708.943,1.035,1.366H-50.255C-50.478,96.247-50.694,96.247-50.9,96.249Zm10.019,6.543,38.985.036L16.54,127.7c.089.12.173.234.258.347l-26.471.009c-.031,0-.057-.009-.091-.009h-.142c-.031,0-.06.009-.094.009l-9.736,0H-26.9c-.043,0-.085-.013-.127-.013H-51.482c-.048,0-.1.013-.149.016l-7.969-.007Zm-5.8,31.8,50.064-.006.06.089c3.521,5.143,19.914,28.82,24.436,35.47,0,0-98.475-.022-98.907-.015C-70.886,169.932-46.679,134.6-46.679,134.6Z"/>
    <path id="Path_43" data-name="Path 43" d="M-16.445,90.145a4.5,4.5,0,0,0,4.611-4.354,4.5,4.5,0,0,0-4.611-4.366,4.493,4.493,0,0,0-4.613,4.366A4.492,4.492,0,0,0-16.445,90.145Z" fill="#9c2486"/>
    <path id="Path_44" data-name="Path 44" d="M-41.222,162.176a4.5,4.5,0,0,0,4.612-4.368,4.5,4.5,0,0,0-4.612-4.367,4.51,4.51,0,0,0-4.613,4.367A4.508,4.508,0,0,0-41.222,162.176Z" fill="#6acef1"/>
    <path id="Path_45" data-name="Path 45" d="M-16.445,153.441a4.5,4.5,0,0,0,4.611-4.366,4.5,4.5,0,0,0-4.611-4.367,4.51,4.51,0,0,0-4.613,4.367A4.513,4.513,0,0,0-16.445,153.441Z" fill="#5c2c8a"/>
  </g>
</svg>
